<mxfile host="app.diagrams.net" modified="2020-11-12T02:22:45.179Z" agent="5.0 (Macintosh; Intel Mac OS X 10_15_7) AppleWebKit/537.36 (KHTML, like Gecko) Chrome/86.0.4240.111 Safari/537.36" etag="e2IBqpkDg-LRVOH678MQ" version="13.9.6" type="github">
  <diagram id="fmoOgIwc2Ryi2yWn_nhG" name="Page-1">
    <mxGraphModel dx="585" dy="458" grid="0" gridSize="10" guides="1" tooltips="1" connect="1" arrows="1" fold="1" page="0" pageScale="1" pageWidth="827" pageHeight="1169" math="0" shadow="0">
      <root>
        <mxCell id="0" />
        <mxCell id="1" parent="0" />
      </root>
    </mxGraphModel>
  </diagram>
</mxfile>
